<svg width="16" height="16" viewBox="0 0 16 16" fill="none" xmlns="http://www.w3.org/2000/svg">
<path d="M15.0595 3.05937C15.6454 2.47344 15.6454 1.52187 15.0595 0.935936C14.4735 0.349998 13.522 0.349998 12.936 0.935936L8.0001 5.87656L3.05947 0.940623C2.47354 0.354686 1.52197 0.354686 0.936035 0.940623C0.350098 1.52656 0.350098 2.47812 0.936035 3.06406L5.87666 8L0.940723 12.9406C0.354785 13.5266 0.354785 14.4781 0.940723 15.0641C1.52666 15.65 2.47822 15.65 3.06416 15.0641L8.0001 10.1234L12.9407 15.0594C13.5267 15.6453 14.4782 15.6453 15.0642 15.0594C15.6501 14.4734 15.6501 13.5219 15.0642 12.9359L10.1235 8L15.0595 3.05937Z" fill="white"/>
</svg>
